<svg width="1287.305" height="116.895" viewBox="0 0 1287.305 116.895" xmlns="http://www.w3.org/2000/svg">
	<g id="svgGroup" stroke-linecap="round" fill-rule="evenodd" font-size="9pt" stroke="#000" stroke-width="0.25mm" fill="none" style="stroke:#000;stroke-width:0.25mm;fill:none">
		<path d="M 51.27 64.746 L 35.596 79.98 L 34.131 112.5 A 314.109 314.109 0 0 0 27.466 112.28 Q 24.17 112.207 20.947 112.207 A 120.298 120.298 0 0 0 14.941 112.354 A 59.511 59.511 0 0 0 9.082 112.939 Q 7.324 99.463 5.786 86.06 Q 4.248 72.656 3.076 59.033 A 732.098 732.098 0 0 1 1.245 31.86 Q 0.586 18.311 0 4.687 Q 10.986 4.98 21.753 5.054 Q 32.52 5.127 43.506 5.42 L 42.627 39.404 A 295.324 295.324 0 0 0 57.568 22.705 A 1715.52 1715.52 0 0 1 72.07 5.42 Q 79.102 4.98 86.279 4.468 Q 93.457 3.955 100.488 3.369 L 99.902 14.209 L 68.848 46.582 A 1520.658 1520.658 0 0 0 91.333 79.102 Q 102.686 95.068 114.551 111.328 A 513.193 513.193 0 0 1 100.562 114.331 Q 93.604 115.723 86.426 116.895 A 26991.059 26991.059 0 0 0 69.067 90.601 Q 60.498 77.637 51.27 64.746 Z" id="0" vector-effect="non-scaling-stroke"/>
		<path d="M 139.746 104.883 L 117.334 107.227 Q 117.334 102.539 117.407 97.998 Q 117.48 93.457 117.48 88.77 A 657.025 657.025 0 0 0 117.041 64.746 L 116.162 40.723 A 385.32 385.32 0 0 0 131.47 39.844 A 382.387 382.387 0 0 1 146.924 38.965 Q 146.191 46.729 145.752 54.346 L 144.873 69.58 A 194.775 194.775 0 0 1 142.896 87.305 A 442.394 442.394 0 0 1 139.746 104.883 Z M 139.673 19.556 A 12.408 12.408 0 0 0 140.918 14.063 A 11.544 11.544 0 0 0 139.6 8.716 Q 138.281 6.152 136.157 4.175 A 15.675 15.675 0 0 0 131.323 1.099 Q 128.613 0 125.83 0 A 14.996 14.996 0 0 0 125.613 0.002 A 13.121 13.121 0 0 0 120.63 1.025 A 13.927 13.927 0 0 0 116.382 3.809 A 13.417 13.417 0 0 0 113.452 7.983 Q 112.354 10.4 112.354 13.184 Q 112.354 15.967 113.379 18.677 A 14.417 14.417 0 0 0 116.309 23.438 Q 118.213 25.488 120.776 26.807 A 11.84 11.84 0 0 0 126.27 28.125 A 12.737 12.737 0 0 0 127.794 28.033 A 14.112 14.112 0 0 0 131.543 27.026 A 16.708 16.708 0 0 0 136.304 24.023 Q 138.428 22.119 139.673 19.556 Z" id="1" vector-effect="non-scaling-stroke"/>
		<path d="M 244.775 10.4 L 243.896 29.443 A 282.551 282.551 0 0 0 234.814 29.004 A 281.671 281.671 0 0 0 225.732 28.857 A 133.584 133.584 0 0 0 224.68 28.862 Q 223.49 28.871 221.872 28.9 A 527.783 527.783 0 0 0 220.313 28.931 A 517.582 517.582 0 0 0 216.595 29.022 A 705.21 705.21 0 0 0 212.476 29.15 A 290.666 290.666 0 0 0 203.613 29.59 A 776.303 776.303 0 0 0 199.255 29.883 A 597.304 597.304 0 0 0 195.264 30.176 A 103.722 103.722 0 0 0 192.572 30.416 Q 191.519 30.525 190.581 30.648 A 51.35 51.35 0 0 0 188.818 30.908 A 33.951 33.951 0 0 0 187.902 31.073 Q 186.072 31.43 185.596 31.787 Q 183.691 33.691 183.691 36.182 A 4.844 4.844 0 0 0 183.826 37.351 A 3.524 3.524 0 0 0 184.57 38.818 A 0.576 0.576 0 0 0 184.798 38.991 Q 185.409 39.293 187.453 39.515 A 39.189 39.189 0 0 0 187.793 39.551 A 107.815 107.815 0 0 0 190.176 39.76 Q 191.246 39.843 192.444 39.919 A 220.77 220.77 0 0 0 194.971 40.063 A 220.871 220.871 0 0 0 199.42 40.247 A 285.968 285.968 0 0 0 204.272 40.356 A 7261.345 7261.345 0 0 1 211.606 40.466 A 6327.441 6327.441 0 0 1 213.94 40.503 A 409.62 409.62 0 0 1 217.782 40.581 Q 219.539 40.625 221.114 40.683 A 238.084 238.084 0 0 1 222.144 40.723 A 236.259 236.259 0 0 1 223.805 40.796 Q 225.857 40.894 226.952 40.992 A 24.188 24.188 0 0 1 227.197 41.016 A 25.385 25.385 0 0 1 230.979 41.79 Q 233.974 42.662 236.06 44.238 A 16.493 16.493 0 0 1 241.113 50.464 A 24.706 24.706 0 0 1 242.913 55.913 A 30.546 30.546 0 0 1 243.384 58.887 A 87.515 87.515 0 0 1 243.896 68.408 Q 243.896 70.203 243.682 72.512 A 71.87 71.87 0 0 1 243.53 73.975 Q 243.164 77.197 242.432 80.42 A 26.727 26.727 0 0 1 240.563 85.9 A 24.75 24.75 0 0 1 240.308 86.426 A 16.642 16.642 0 0 1 238.992 88.637 Q 238.083 89.914 237.012 90.82 A 9.899 9.899 0 0 1 235.374 91.862 Q 233.575 92.792 230.831 93.518 A 39.472 39.472 0 0 1 229.907 93.75 A 95.402 95.402 0 0 1 223.487 95.043 A 114.162 114.162 0 0 1 219.36 95.654 A 151.572 151.572 0 0 1 210.104 96.577 A 135.65 135.65 0 0 1 208.447 96.68 Q 204.101 96.921 201.446 96.964 A 66.284 66.284 0 0 1 200.391 96.973 Q 190.723 96.973 181.055 95.874 Q 171.387 94.775 161.865 93.457 L 161.865 65.479 A 108.421 108.421 0 0 0 180.396 67.676 A 402.41 402.41 0 0 1 199.072 68.701 A 46.546 46.546 0 0 0 200.148 68.77 Q 201.947 68.866 204.858 68.921 A 103.126 103.126 0 0 0 206.804 68.939 A 106.194 106.194 0 0 0 212.695 68.774 A 49.242 49.242 0 0 0 216.691 68.396 A 37.494 37.494 0 0 0 219.873 67.822 Q 223.096 67.09 223.828 65.771 A 1.747 1.747 0 0 0 224.112 64.952 A 2.197 2.197 0 0 0 224.121 64.746 L 224.121 63.721 Q 224.121 62.933 224.022 61.848 A 40.363 40.363 0 0 0 223.901 60.718 A 9.146 9.146 0 0 0 223.693 59.566 Q 223.548 58.992 223.333 58.527 A 4.115 4.115 0 0 0 222.949 57.861 A 0.315 0.315 0 0 0 222.85 57.801 Q 222.61 57.699 221.924 57.642 A 100.004 100.004 0 0 0 221.62 57.617 Q 221.017 57.568 220.898 57.568 A 368.084 368.084 0 0 0 204.492 57.056 A 210.924 210.924 0 0 1 187.939 56.25 A 355.604 355.604 0 0 1 181.128 55.591 Q 177.686 55.225 174.316 54.492 A 57.263 57.263 0 0 1 171.661 53.87 A 43.99 43.99 0 0 1 169.263 53.174 A 16.509 16.509 0 0 1 166.924 52.226 A 13.162 13.162 0 0 1 165.308 51.27 A 10.464 10.464 0 0 1 162.53 48.387 A 11.935 11.935 0 0 1 162.451 48.267 Q 161.279 46.436 160.84 43.359 A 7.654 7.654 0 0 1 160.585 42.076 A 6.482 6.482 0 0 1 160.547 41.382 L 160.547 39.258 A 56.653 56.653 0 0 1 160.603 36.81 Q 160.657 35.563 160.763 34.185 A 95.495 95.495 0 0 1 160.84 33.252 Q 161.133 29.883 161.938 26.514 A 42.788 42.788 0 0 1 163.685 20.898 A 39.084 39.084 0 0 1 163.989 20.142 A 15.512 15.512 0 0 1 165.487 17.337 A 12.333 12.333 0 0 1 167.285 15.234 Q 168.44 14.08 171.167 13.262 A 23.229 23.229 0 0 1 171.973 13.037 A 61.826 61.826 0 0 1 175.357 12.261 Q 177.146 11.901 179.157 11.588 A 104.557 104.557 0 0 1 179.736 11.499 A 145.436 145.436 0 0 1 185.458 10.761 A 173.432 173.432 0 0 1 189.111 10.4 A 245.358 245.358 0 0 1 196.376 9.865 A 217.74 217.74 0 0 1 198.706 9.741 A 352.258 352.258 0 0 1 203.101 9.558 A 256.389 256.389 0 0 1 207.056 9.448 A 617.883 617.883 0 0 1 208.809 9.416 Q 210.499 9.388 211.702 9.379 A 136.069 136.069 0 0 1 212.695 9.375 A 441.399 441.399 0 0 1 228.882 9.668 Q 236.865 9.961 244.775 10.4 Z" id="2" vector-effect="non-scaling-stroke"/>
		<path d="M 282.568 111.035 L 261.914 110.01 A 10373.159 10373.159 0 0 1 258.838 57.495 A 8756.776 8756.776 0 0 1 256.055 4.98 L 288.281 2.93 A 83389.338 83389.338 0 0 1 287.695 22.192 A 83389.338 83389.338 0 0 0 287.109 41.455 Q 289.893 39.111 293.408 37.866 A 33.307 33.307 0 0 1 300.659 36.182 A 64.511 64.511 0 0 1 308.203 35.742 L 315.527 35.742 A 181.752 181.752 0 0 1 320.777 35.823 Q 323.532 35.902 326.587 36.061 A 301.605 301.605 0 0 1 327.466 36.108 Q 334.131 36.475 340.21 38.159 A 30.869 30.869 0 0 1 349.631 42.515 A 29.219 29.219 0 0 1 350.977 43.506 A 17.014 17.014 0 0 1 356.351 50.831 A 22.525 22.525 0 0 1 357.275 53.76 A 1.411 1.411 0 0 1 357.394 54.089 A 1.196 1.196 0 0 1 357.422 54.346 L 357.422 54.932 A 91.524 91.524 0 0 1 356.763 65.845 Q 356.104 71.338 355.371 76.758 A 563.42 563.42 0 0 1 352.734 95.581 A 5369.426 5369.426 0 0 0 349.805 114.404 A 324.85 324.85 0 0 0 335.742 114.99 Q 328.857 115.43 321.826 116.016 L 321.826 94.849 A 504.882 504.882 0 0 0 321.387 73.828 Q 321.387 71.777 321.313 68.555 A 31.844 31.844 0 0 0 321.203 66.478 Q 321.039 64.627 320.654 63.281 A 20.041 20.041 0 0 0 320.156 61.641 Q 319.589 60.044 318.88 59.136 A 4.188 4.188 0 0 0 318.457 58.667 Q 317.387 57.656 314.674 57.466 A 19.279 19.279 0 0 0 313.33 57.422 A 29.159 29.159 0 0 0 310.949 57.526 Q 309.699 57.629 308.298 57.833 A 54.833 54.833 0 0 0 307.178 58.008 A 103.842 103.842 0 0 0 300.229 59.418 A 112.92 112.92 0 0 0 300 59.473 A 86.583 86.583 0 0 0 294.713 60.915 A 76.719 76.719 0 0 0 293.042 61.45 A 48.874 48.874 0 0 0 290.725 62.284 Q 289.598 62.724 288.639 63.175 A 24.282 24.282 0 0 0 287.549 63.721 A 535.932 535.932 0 0 1 284.692 87.305 Q 283.008 99.023 282.568 111.035 Z" id="3" vector-effect="non-scaling-stroke"/>
		<path d="M 478.271 54.053 L 478.271 56.323 A 18.029 18.029 0 0 1 478.163 58.266 A 20.142 20.142 0 0 1 478.125 58.594 Q 477.99 60.482 477.483 64.607 A 382.547 382.547 0 0 1 477.393 65.332 Q 476.807 70.02 475.781 75.073 A 79.413 79.413 0 0 1 474.368 80.933 A 64.568 64.568 0 0 1 473.291 84.375 A 24.785 24.785 0 0 1 472.546 86.293 Q 471.748 88.103 470.871 89.083 A 4.265 4.265 0 0 1 470.068 89.795 A 2.205 2.205 0 0 1 469.539 90.027 Q 468.21 90.455 464.408 90.796 A 97.993 97.993 0 0 1 464.136 90.82 A 341.008 341.008 0 0 1 460.036 91.15 Q 458.2 91.287 456.148 91.425 A 686.424 686.424 0 0 1 451.831 91.699 A 539.527 539.527 0 0 1 444.269 92.102 A 682.835 682.835 0 0 1 436.084 92.432 A 2959.469 2959.469 0 0 1 427.789 92.706 A 2548.224 2548.224 0 0 1 419.897 92.944 Q 414.61 93.095 410.223 93.212 A 3110.652 3110.652 0 0 1 406.421 93.311 Q 401.694 93.43 399.558 93.452 A 82.222 82.222 0 0 1 398.73 93.457 L 395.728 93.457 A 132.994 132.994 0 0 1 393.549 93.439 A 154.264 154.264 0 0 1 391.26 93.384 A 118.591 118.591 0 0 1 388.445 93.264 A 97.255 97.255 0 0 1 386.865 93.164 A 29.546 29.546 0 0 1 385.913 93.082 Q 385 92.987 384.403 92.852 A 4.904 4.904 0 0 1 383.936 92.725 A 12.14 12.14 0 0 1 381.693 91.639 A 16.45 16.45 0 0 1 379.834 90.308 A 28.07 28.07 0 0 1 376.025 86.499 A 38.206 38.206 0 0 1 372.876 82.104 A 21.11 21.11 0 0 1 371.748 80.024 Q 371.243 78.945 370.938 77.92 A 12.863 12.863 0 0 1 370.898 77.783 A 13.897 13.897 0 0 1 370.663 76.744 Q 370.377 75.245 370.166 72.876 A 139.943 139.943 0 0 1 369.809 67.767 A 158.163 158.163 0 0 1 369.727 65.991 Q 369.58 62.402 369.507 59.033 A 493.598 493.598 0 0 1 369.475 57.449 Q 369.446 55.92 369.438 54.819 A 114.329 114.329 0 0 1 369.434 53.906 A 138.754 138.754 0 0 1 369.443 52.382 Q 369.47 49.896 369.58 46.216 A 89.886 89.886 0 0 1 370.453 36.222 A 99.758 99.758 0 0 1 370.459 36.182 A 64.493 64.493 0 0 1 371.778 29.444 A 55.465 55.465 0 0 1 372.583 26.587 Q 373.496 23.656 374.945 21.891 A 7.658 7.658 0 0 1 376.611 20.361 A 4.85 4.85 0 0 1 377.325 20.004 Q 378.533 19.506 380.794 19.082 A 40.716 40.716 0 0 1 381.006 19.043 A 73.145 73.145 0 0 1 383.588 18.624 Q 385.018 18.417 386.627 18.232 A 135.447 135.447 0 0 1 388.623 18.018 A 158.355 158.355 0 0 1 394.345 17.554 A 189.733 189.733 0 0 1 397.998 17.358 A 339.63 339.63 0 0 1 407.739 17.065 Q 412.5 16.992 416.602 16.992 A 197.362 197.362 0 0 1 418.552 17.001 Q 421.326 17.029 423.193 17.139 A 65.827 65.827 0 0 0 424.411 17.207 Q 426.416 17.303 429.492 17.358 A 708.526 708.526 0 0 1 433.832 17.45 A 968.717 968.717 0 0 1 438.647 17.578 A 265.469 265.469 0 0 1 446.434 17.921 A 295.485 295.485 0 0 1 449.121 18.091 A 198.717 198.717 0 0 1 454.358 18.512 A 161.165 161.165 0 0 1 459.229 19.043 Q 463.422 19.567 466.736 20.384 A 45.193 45.193 0 0 1 467.505 20.581 A 22.39 22.39 0 0 1 469.148 21.08 Q 470.733 21.634 471.636 22.291 A 3.937 3.937 0 0 1 472.266 22.852 Q 474.17 24.902 475.342 29.004 A 63.218 63.218 0 0 1 476.811 35.445 A 72.348 72.348 0 0 1 477.173 37.72 A 98.384 98.384 0 0 1 478.052 46.802 Q 478.271 51.27 478.271 54.053 Z M 447.217 57.129 Q 447.217 55.371 447.07 53.027 A 82.155 82.155 0 0 0 446.631 48.267 A 36.146 36.146 0 0 0 445.752 43.579 A 19.084 19.084 0 0 0 445.271 41.99 Q 444.986 41.182 444.651 40.51 A 9.716 9.716 0 0 0 444.287 39.844 A 5.117 5.117 0 0 0 442.972 38.442 Q 442.321 37.954 441.451 37.553 A 13.425 13.425 0 0 0 439.746 36.914 A 41.395 41.395 0 0 0 435.307 35.838 A 51.32 51.32 0 0 0 432.349 35.376 A 89.331 89.331 0 0 0 424.438 34.717 A 344.511 344.511 0 0 0 422.621 34.653 Q 420.096 34.571 418.669 34.57 A 51.167 51.167 0 0 0 418.652 34.57 A 48.479 48.479 0 0 0 418.05 34.575 Q 416.978 34.588 414.99 34.644 A 227.552 227.552 0 0 0 410.912 34.795 A 256.692 256.692 0 0 0 409.497 34.863 A 61.069 61.069 0 0 0 406.07 35.132 A 50.38 50.38 0 0 0 404.15 35.376 Q 401.66 35.742 400.928 36.182 A 4.933 4.933 0 0 0 399.584 37.539 Q 399.193 38.115 398.896 38.844 A 8.589 8.589 0 0 0 398.877 38.892 A 18.315 18.315 0 0 0 398.05 41.55 A 22.087 22.087 0 0 0 397.778 42.92 A 33.24 33.24 0 0 0 397.339 47.241 A 171.718 171.718 0 0 0 397.307 48.253 Q 397.271 49.492 397.266 50.397 A 52.181 52.181 0 0 0 397.266 50.684 Q 397.266 51.768 397.414 54.289 A 238.975 238.975 0 0 0 397.485 55.444 A 221.556 221.556 0 0 0 397.742 58.997 A 266.233 266.233 0 0 0 398.071 62.769 Q 398.438 66.65 399.023 69.873 Q 399.609 73.096 400.488 73.975 Q 401.358 74.969 403.547 75.647 A 17.337 17.337 0 0 0 404.37 75.879 A 60.729 60.729 0 0 0 408.112 76.709 A 73.033 73.033 0 0 0 410.522 77.124 A 79.07 79.07 0 0 0 415.733 77.764 A 70.304 70.304 0 0 0 416.895 77.856 Q 419.727 78.059 421.069 78.075 A 18.448 18.448 0 0 0 421.289 78.076 Q 423.633 78.076 426.855 77.93 A 50.254 50.254 0 0 0 433.374 77.197 A 40.886 40.886 0 0 0 438.488 75.955 A 36.639 36.639 0 0 0 439.6 75.586 A 14.981 14.981 0 0 0 441.92 74.559 Q 443.291 73.798 444.287 72.803 Q 445.313 71.777 445.898 69.727 Q 446.484 67.676 446.777 65.332 Q 447.07 62.988 447.144 60.718 A 206.397 206.397 0 0 0 447.176 59.642 Q 447.204 58.594 447.213 57.799 A 60.473 60.473 0 0 0 447.217 57.129 Z" id="4" vector-effect="non-scaling-stroke"/>
		<path d="M 578.174 50.244 L 578.174 53.613 L 549.902 54.932 Q 550.342 53.027 550.342 50.537 Q 550.342 47.016 549.394 45.865 A 1.894 1.894 0 0 0 549.316 45.776 A 2.466 2.466 0 0 0 548.492 45.222 Q 547.257 44.681 544.801 44.678 A 22.284 22.284 0 0 0 544.775 44.678 A 33.182 33.182 0 0 0 539.539 45.117 Q 537.135 45.502 534.536 46.223 A 54.756 54.756 0 0 0 533.789 46.436 Q 527.783 48.193 523.242 49.805 Q 522.51 56.25 522.07 62.695 A 189.447 189.447 0 0 0 521.631 75.586 Q 521.631 82.764 521.704 89.868 Q 521.777 96.973 521.924 104.15 L 496.729 105.762 A 30641.952 30641.952 0 0 0 495.264 87.085 Q 494.531 77.783 493.945 68.408 A 698.744 698.744 0 0 0 492.041 43.579 Q 490.869 31.201 489.697 18.604 A 269.899 269.899 0 0 1 506.323 20.288 A 287.133 287.133 0 0 1 522.949 22.998 L 522.217 35.303 Q 526.611 31.787 530.64 29.224 A 55.117 55.117 0 0 1 538.843 24.902 Q 543.018 23.145 547.705 22.339 A 54.389 54.389 0 0 1 553.139 21.699 A 71.642 71.642 0 0 1 558.105 21.533 A 39.609 39.609 0 0 1 563.983 21.986 A 45.774 45.774 0 0 1 566.016 22.339 A 13.371 13.371 0 0 1 573.047 26.074 A 8.571 8.571 0 0 1 574.079 27.501 Q 574.894 28.888 575.537 30.908 A 47.161 47.161 0 0 1 576.975 36.718 A 52.783 52.783 0 0 1 577.148 37.72 A 72.171 72.171 0 0 1 577.954 44.751 Q 578.142 47.689 578.169 49.613 A 44.257 44.257 0 0 1 578.174 50.244 Z" id="5" vector-effect="non-scaling-stroke"/>
		<path d="M 671.777 73.828 L 672.949 97.119 A 1293.88 1293.88 0 0 1 653.687 97.852 Q 644.092 98.145 634.424 98.145 A 195.501 195.501 0 0 1 633.273 98.141 Q 631.598 98.13 628.74 98.095 A 1854.133 1854.133 0 0 1 626.88 98.071 A 241.074 241.074 0 0 1 619.727 97.865 A 291.231 291.231 0 0 1 615.161 97.632 A 258.336 258.336 0 0 1 607.694 97.088 A 210.899 210.899 0 0 1 603.516 96.68 A 56.17 56.17 0 0 1 601.176 96.381 Q 597.938 95.892 596.546 95.181 A 4.197 4.197 0 0 1 596.338 95.068 A 21.076 21.076 0 0 1 591.331 91.089 A 18.938 18.938 0 0 1 589.233 88.33 A 35.067 35.067 0 0 1 585.278 79.395 Q 583.887 74.561 583.374 69.507 A 143.085 143.085 0 0 1 582.783 61.536 A 126.889 126.889 0 0 1 582.715 59.766 A 5.134 5.134 0 0 1 582.617 58.757 A 5.841 5.841 0 0 1 582.642 58.228 A 17.743 17.743 0 0 0 582.709 57.107 A 15.279 15.279 0 0 0 582.715 56.689 Q 582.715 48.926 584.399 42.261 A 36.156 36.156 0 0 1 588.267 32.919 A 44.298 44.298 0 0 1 590.625 29.297 A 20.019 20.019 0 0 1 594.976 24.844 Q 596.926 23.365 599.378 22.135 A 33.915 33.915 0 0 1 599.707 21.973 A 61.832 61.832 0 0 1 610.143 18.034 A 70.195 70.195 0 0 1 612.744 17.358 Q 619.775 15.674 626.807 15.015 Q 633.838 14.355 638.965 14.355 A 65.329 65.329 0 0 1 642.659 14.469 Q 644.318 14.563 646.178 14.736 A 137.132 137.132 0 0 1 650.098 15.161 A 82.293 82.293 0 0 1 663.208 17.871 A 58.107 58.107 0 0 1 671.227 20.844 A 49.227 49.227 0 0 1 675 22.778 A 20.966 20.966 0 0 1 678.481 25.226 Q 680.557 27.051 681.73 29.248 A 12.651 12.651 0 0 1 682.178 30.176 A 8.295 8.295 0 0 1 682.329 30.693 Q 682.486 31.293 682.661 32.209 A 53.418 53.418 0 0 1 682.837 33.179 A 408.608 408.608 0 0 1 683.196 35.299 Q 683.409 36.573 683.643 38.013 A 129.447 129.447 0 0 1 684.163 41.543 A 154.997 154.997 0 0 1 684.448 43.799 A 468.11 468.11 0 0 1 684.796 46.802 A 401.963 401.963 0 0 1 685.107 49.658 A 1169.011 1169.011 0 0 1 685.366 52.139 Q 685.503 53.471 685.62 54.639 Q 685.84 56.836 685.986 57.715 A 2037.493 2037.493 0 0 1 647.754 59.399 A 10783.439 10783.439 0 0 0 609.521 60.791 A 4.816 4.816 0 0 0 609.375 61.963 L 609.375 63.135 A 17.537 17.537 0 0 0 609.597 66.019 Q 609.856 67.57 610.418 68.809 A 8.057 8.057 0 0 0 611.646 70.752 A 12.348 12.348 0 0 0 617.285 74.487 Q 620.654 75.586 624.756 75.732 A 240.469 240.469 0 0 0 628.711 75.842 A 190.691 190.691 0 0 0 632.373 75.879 A 292.829 292.829 0 0 0 652.002 75.22 A 3130.011 3130.011 0 0 0 671.777 73.828 Z M 617.139 48.633 L 666.064 47.021 A 36.69 36.69 0 0 0 665.278 42.911 Q 664.759 40.875 664.03 39.209 A 16.612 16.612 0 0 0 662.769 36.841 A 16.776 16.776 0 0 0 659.679 33.241 A 14.518 14.518 0 0 0 656.763 31.274 A 21.972 21.972 0 0 0 651.611 29.439 A 27.576 27.576 0 0 0 648.56 28.931 A 83.508 83.508 0 0 0 642.534 28.49 A 101.079 101.079 0 0 0 638.672 28.418 A 101.122 101.122 0 0 0 637.738 28.423 Q 636.303 28.436 634.404 28.488 A 281.575 281.575 0 0 0 634.277 28.491 A 47.992 47.992 0 0 0 629.004 28.931 Q 626.367 29.297 624.023 30.029 Q 622.048 30.647 620.801 31.68 A 6.369 6.369 0 0 0 620.361 32.08 A 5.611 5.611 0 0 0 619.336 33.258 Q 618.976 33.803 618.686 34.476 A 9.393 9.393 0 0 0 618.677 34.497 Q 618.018 36.035 617.578 37.793 A 30.788 30.788 0 0 0 616.977 40.813 A 28.009 28.009 0 0 0 616.919 41.235 A 31.694 31.694 0 0 0 616.785 42.427 Q 616.733 42.995 616.712 43.489 A 14.614 14.614 0 0 0 616.699 44.092 A 23.102 23.102 0 0 0 617.139 48.633 Z" id="6" vector-effect="non-scaling-stroke"/>
		<path d="M 749.268 64.746 L 733.594 79.98 L 732.129 112.5 A 314.109 314.109 0 0 0 725.464 112.28 Q 722.168 112.207 718.945 112.207 A 120.298 120.298 0 0 0 712.939 112.354 A 59.511 59.511 0 0 0 707.08 112.939 Q 705.322 99.463 703.784 86.06 Q 702.246 72.656 701.074 59.033 A 732.098 732.098 0 0 1 699.243 31.86 Q 698.584 18.311 697.998 4.687 Q 708.984 4.98 719.751 5.054 Q 730.518 5.127 741.504 5.42 L 740.625 39.404 A 295.324 295.324 0 0 0 755.566 22.705 A 1715.52 1715.52 0 0 1 770.068 5.42 Q 777.1 4.98 784.277 4.468 Q 791.455 3.955 798.486 3.369 L 797.9 14.209 L 766.846 46.582 A 1520.658 1520.658 0 0 0 789.331 79.102 Q 800.684 95.068 812.549 111.328 A 513.193 513.193 0 0 1 798.56 114.331 Q 791.602 115.723 784.424 116.895 A 26991.059 26991.059 0 0 0 767.065 90.601 Q 758.496 77.637 749.268 64.746 Z" id="7" vector-effect="non-scaling-stroke"/>
		<path d="M 912.891 104.59 L 888.135 105.615 L 886.377 90.82 A 26.962 26.962 0 0 1 879.712 97.266 Q 875.83 99.902 871.362 101.514 Q 866.895 103.125 862.134 103.784 A 68.146 68.146 0 0 1 853.401 104.441 A 62.855 62.855 0 0 1 852.832 104.443 Q 850.429 104.443 847.238 104.17 A 118.265 118.265 0 0 1 844.116 103.857 Q 838.916 103.271 833.569 102.173 Q 828.223 101.074 823.682 99.316 A 26.669 26.669 0 0 1 821.087 98.161 Q 819.813 97.504 818.825 96.78 A 10.671 10.671 0 0 1 817.09 95.215 A 7.218 7.218 0 0 1 816.041 93.687 Q 815.245 92.172 814.74 89.888 A 25.004 25.004 0 0 1 814.673 89.575 A 57.934 57.934 0 0 1 813.78 83.73 A 67.929 67.929 0 0 1 813.574 81.299 A 131.277 131.277 0 0 1 813.3 74.872 A 117.96 117.96 0 0 1 813.281 72.803 L 813.281 66.211 A 264.57 264.57 0 0 1 814.16 44.531 Q 815.039 33.838 816.65 23.291 A 76.933 76.933 0 0 1 822.006 22.913 A 93.173 93.173 0 0 1 825.439 22.852 A 57.033 57.033 0 0 1 833.057 23.364 Q 836.865 23.877 840.674 24.609 Q 840.674 25.295 840.802 28.416 A 750.392 750.392 0 0 0 840.82 28.857 Q 840.967 32.373 841.187 37.207 A 1197.838 1197.838 0 0 0 841.425 42.206 A 1451.575 1451.575 0 0 0 841.699 47.534 A 466.508 466.508 0 0 0 842.01 52.826 A 368.736 368.736 0 0 0 842.358 57.715 Q 842.639 61.304 843.005 64.077 A 71.296 71.296 0 0 0 843.237 65.698 Q 843.716 68.777 844.259 69.236 A 0.391 0.391 0 0 0 844.336 69.287 A 10.369 10.369 0 0 0 849.17 70.752 A 92.982 92.982 0 0 0 853.985 70.898 A 85.107 85.107 0 0 0 854.297 70.898 A 41.592 41.592 0 0 0 855.299 70.885 Q 856.904 70.846 859.514 70.695 A 262.928 262.928 0 0 0 859.79 70.679 A 108.878 108.878 0 0 0 866.495 70.07 A 119.822 119.822 0 0 0 867.48 69.946 A 76.643 76.643 0 0 0 872.083 69.213 A 61.999 61.999 0 0 0 874.805 68.628 Q 878.174 67.822 879.346 66.65 A 0.995 0.995 0 0 0 879.534 66.354 Q 879.764 65.838 879.918 64.657 A 22.28 22.28 0 0 0 880.005 63.867 A 67.696 67.696 0 0 0 880.188 61.414 A 87.057 87.057 0 0 0 880.298 58.74 A 1455.295 1455.295 0 0 1 880.371 56.049 A 1178.188 1178.188 0 0 1 880.444 53.54 A 690.477 690.477 0 0 0 880.469 52.703 Q 880.509 51.339 880.516 50.854 A 12.166 12.166 0 0 0 880.518 50.684 A 287.099 287.099 0 0 0 880.225 37.646 A 12947.088 12947.088 0 0 1 879.639 24.609 L 908.057 23.291 Q 908.936 33.545 909.668 43.726 A 488.95 488.95 0 0 0 911.572 64.16 Q 912.012 67.529 912.085 71.045 Q 912.158 74.561 912.305 78.076 Q 912.598 84.668 912.671 91.26 Q 912.744 97.852 912.891 104.59 Z" id="8" vector-effect="non-scaling-stroke"/>
		<path d="M 987.744 103.711 L 987.744 93.018 A 306.104 306.104 0 0 0 987.632 84.846 A 336.193 336.193 0 0 0 987.598 83.643 A 1118.427 1118.427 0 0 0 987.469 79.637 Q 987.408 77.814 987.346 76.2 A 613.041 613.041 0 0 0 987.305 75.146 A 255.554 255.554 0 0 0 987.222 73.81 Q 987.104 71.969 986.925 69.519 A 783.122 783.122 0 0 0 986.865 68.701 A 40.198 40.198 0 0 0 985.547 61.011 A 21.779 21.779 0 0 0 984.141 57.232 A 17.537 17.537 0 0 0 982.544 54.565 A 6.289 6.289 0 0 0 978.009 51.909 A 8.35 8.35 0 0 0 977.051 51.855 A 13.737 13.737 0 0 0 975.936 51.906 Q 974.593 52.016 972.729 52.368 A 63.999 63.999 0 0 0 968.052 53.442 A 71.483 71.483 0 0 0 967.163 53.687 Q 964.307 54.492 961.89 55.591 Q 959.652 56.608 958.607 57.688 A 4.709 4.709 0 0 0 958.447 57.861 A 0.614 0.614 0 0 0 958.335 58.066 Q 958.129 58.603 957.891 60.356 A 58.792 58.792 0 0 0 957.788 61.157 A 99.303 99.303 0 0 0 957.524 63.595 Q 957.312 65.781 957.129 68.481 A 1805.503 1805.503 0 0 1 956.818 72.986 A 2283.899 2283.899 0 0 1 956.47 77.856 A 471.511 471.511 0 0 0 956.14 82.745 A 381.628 381.628 0 0 0 955.884 87.305 A 528.479 528.479 0 0 1 955.719 90.425 Q 955.65 91.653 955.582 92.759 A 274.894 274.894 0 0 1 955.444 94.849 A 384.471 384.471 0 0 0 955.37 95.94 Q 955.244 97.819 955.227 98.427 A 5.86 5.86 0 0 0 955.225 98.584 A 223.644 223.644 0 0 1 949.292 99.097 Q 946.289 99.316 943.359 99.316 A 105.89 105.89 0 0 1 937.793 99.17 A 93.67 93.67 0 0 1 932.373 98.73 A 992.383 992.383 0 0 0 930.249 61.963 A 3713.551 3713.551 0 0 0 927.246 25.195 A 508.232 508.232 0 0 1 935.376 24.39 A 89.753 89.753 0 0 1 943.506 24.023 A 213.702 213.702 0 0 1 951.416 24.17 A 6104.419 6104.419 0 0 0 959.473 24.463 L 957.568 37.061 Q 964.307 31.641 970.532 29.004 Q 976.32 26.553 984.197 26.38 A 55.012 55.012 0 0 1 985.4 26.367 Q 988.626 26.367 991.112 27.105 A 14.476 14.476 0 0 1 991.333 27.173 A 18.866 18.866 0 0 1 995.753 29.198 A 17.675 17.675 0 0 1 996.021 29.37 A 30.489 30.489 0 0 1 999.165 31.746 A 35.395 35.395 0 0 1 1000.195 32.666 Q 1002.246 34.57 1004.59 36.768 A 25.746 25.746 0 0 1 1007.619 32.885 A 20.577 20.577 0 0 1 1010.669 30.249 A 28.488 28.488 0 0 1 1018.066 26.514 A 35.576 35.576 0 0 1 1026.142 24.853 A 39.33 39.33 0 0 1 1026.416 24.829 Q 1030.811 24.463 1035.205 24.463 A 125.673 125.673 0 0 1 1040.448 24.576 A 146.023 146.023 0 0 1 1042.603 24.683 Q 1046.484 24.902 1050.073 25.928 Q 1053.662 26.953 1056.592 29.004 A 13.276 13.276 0 0 1 1060.765 33.819 A 16.012 16.012 0 0 1 1061.133 34.57 A 47.322 47.322 0 0 1 1063.361 40.675 A 57.015 57.015 0 0 1 1064.209 43.945 A 103.247 103.247 0 0 1 1066.04 54.492 Q 1066.699 59.912 1066.919 65.186 A 264.718 264.718 0 0 1 1067.084 70.276 A 211.298 211.298 0 0 1 1067.139 75 A 326.565 326.565 0 0 1 1066.919 87.085 Q 1066.699 93.018 1066.113 99.023 A 707.652 707.652 0 0 0 1057.173 99.504 A 621.304 621.304 0 0 0 1054.321 99.683 Q 1048.682 100.049 1042.529 101.221 A 128.98 128.98 0 0 0 1044.287 79.98 A 40.242 40.242 0 0 0 1044.269 78.859 Q 1044.214 76.923 1043.994 73.462 A 248.851 248.851 0 0 0 1043.431 66.293 A 286.231 286.231 0 0 0 1043.188 63.794 A 121.469 121.469 0 0 0 1042.519 58.363 A 95.327 95.327 0 0 0 1041.87 54.492 Q 1041.064 50.244 1040.039 48.926 A 3.562 3.562 0 0 0 1039.126 48.158 Q 1038.576 47.828 1037.842 47.607 A 20.054 20.054 0 0 0 1034.979 46.978 A 22.109 22.109 0 0 0 1034.766 46.948 A 35.908 35.908 0 0 0 1031.543 46.655 A 97.098 97.098 0 0 0 1030.774 46.623 Q 1029.83 46.588 1029.129 46.583 A 31.376 31.376 0 0 0 1028.906 46.582 A 51.689 51.689 0 0 0 1027.495 46.603 Q 1026.242 46.637 1024.731 46.729 A 57.728 57.728 0 0 0 1019.824 47.241 A 29.445 29.445 0 0 0 1015.099 48.328 A 27.266 27.266 0 0 0 1015.063 48.34 Q 1013.151 48.957 1011.81 49.782 A 9.729 9.729 0 0 0 1011.328 50.098 Q 1010.648 50.642 1010.158 52.826 A 19.955 19.955 0 0 0 1010.083 53.174 Q 1009.57 55.664 1009.277 59.18 A 230.728 230.728 0 0 0 1009.003 62.842 A 289.801 289.801 0 0 0 1008.765 66.797 A 670.636 670.636 0 0 0 1008.563 70.77 A 548.513 548.513 0 0 0 1008.398 74.487 A 202.51 202.51 0 0 0 1008.309 77.055 Q 1008.281 78.074 1008.266 79.007 A 116.242 116.242 0 0 0 1008.252 80.786 L 1008.252 84.229 A 425.775 425.775 0 0 0 1008.691 103.564 Q 1004.443 103.711 1000.415 103.857 A 227.847 227.847 0 0 1 992.139 104.004 L 990.967 104.004 A 7.452 7.452 0 0 1 989.502 103.857 A 10.675 10.675 0 0 1 987.744 103.711 Z" id="9" vector-effect="non-scaling-stroke"/>
		<path d="M 1186.816 45.996 Q 1186.816 58.301 1185.938 70.459 L 1184.18 94.775 Q 1167.773 96.24 1151.514 97.266 Q 1135.254 98.291 1118.848 98.291 A 100.362 100.362 0 0 1 1118.024 98.287 Q 1116.823 98.277 1114.767 98.242 A 968.268 968.268 0 0 1 1113.428 98.218 A 245.737 245.737 0 0 1 1109.363 98.108 A 288.256 288.256 0 0 1 1105.078 97.925 A 206.657 206.657 0 0 1 1098.988 97.533 A 177.042 177.042 0 0 1 1096.729 97.339 A 40.854 40.854 0 0 1 1095.019 97.147 Q 1092.65 96.826 1091.61 96.321 A 3.193 3.193 0 0 1 1091.455 96.24 Q 1086.644 93.616 1084.735 89.614 A 12.238 12.238 0 0 1 1084.717 89.575 A 19.781 19.781 0 0 1 1083.003 83.554 A 25.05 25.05 0 0 1 1082.812 80.42 Q 1082.813 79.074 1082.898 77.041 A 169.563 169.563 0 0 1 1082.959 75.732 A 69.271 69.271 0 0 1 1083.321 71.37 A 80.846 80.846 0 0 1 1083.545 69.58 A 53.96 53.96 0 0 1 1084.209 65.723 A 44.901 44.901 0 0 1 1084.717 63.574 A 20.38 20.38 0 0 1 1085.177 62.051 Q 1085.693 60.574 1086.324 59.676 A 5.267 5.267 0 0 1 1086.475 59.473 Q 1087.512 58.09 1090.633 57.025 A 27.941 27.941 0 0 1 1092.48 56.47 A 59.985 59.985 0 0 1 1096.761 55.51 Q 1099.918 54.916 1103.687 54.492 A 237.001 237.001 0 0 1 1110.461 53.833 A 293.012 293.012 0 0 1 1117.749 53.32 A 569.898 569.898 0 0 1 1128.694 52.785 A 495.371 495.371 0 0 1 1132.178 52.661 A 470.231 470.231 0 0 1 1138.31 52.503 Q 1141.191 52.449 1143.756 52.442 A 274.569 274.569 0 0 1 1144.482 52.441 L 1152.246 52.441 A 46.718 46.718 0 0 0 1152.685 46.335 A 43.158 43.158 0 0 0 1152.686 46.143 L 1152.686 44.604 Q 1152.686 43.593 1152.589 43.21 A 0.721 0.721 0 0 0 1152.539 43.066 A 1.489 1.489 0 0 0 1152.126 42.583 Q 1151.422 42.018 1149.756 41.602 Q 1147.973 41.156 1145.554 40.88 A 55.353 55.353 0 0 0 1143.97 40.723 A 219.981 219.981 0 0 0 1140.381 40.448 A 277.519 277.519 0 0 0 1136.499 40.21 A 144.736 144.736 0 0 0 1129.139 39.991 A 132.733 132.733 0 0 0 1128.662 39.99 L 1121.924 39.99 L 1117.676 39.99 A 465.438 465.438 0 0 0 1099.219 40.356 A 2330.039 2330.039 0 0 1 1080.762 41.016 Q 1081.348 35.449 1081.714 29.736 A 98.501 98.501 0 0 0 1081.917 23.434 A 94.676 94.676 0 0 0 1081.787 18.457 A 212.971 212.971 0 0 1 1103.247 15.747 A 291.422 291.422 0 0 1 1125 14.941 A 489.033 489.033 0 0 1 1129.138 14.96 A 630.878 630.878 0 0 1 1133.643 15.015 A 300.458 300.458 0 0 1 1143.018 15.308 A 193.821 193.821 0 0 1 1152.319 15.967 A 106.971 106.971 0 0 1 1157.698 16.611 A 86.398 86.398 0 0 1 1160.889 17.139 A 31.924 31.924 0 0 1 1168.263 19.429 A 35.914 35.914 0 0 1 1169.019 19.775 A 38.905 38.905 0 0 1 1176.563 24.463 Q 1180.078 27.246 1182.715 30.835 A 24.098 24.098 0 0 1 1186.523 38.525 A 2.586 2.586 0 0 1 1186.596 38.8 Q 1186.659 39.097 1186.705 39.54 A 14.974 14.974 0 0 1 1186.743 39.99 A 27.744 27.744 0 0 1 1186.798 41.071 A 36.97 36.97 0 0 1 1186.816 42.261 L 1186.816 44.531 L 1186.816 45.996 Z M 1154.15 80.42 L 1154.15 61.67 Q 1149.902 61.523 1145.654 61.45 Q 1141.406 61.377 1137.158 61.377 A 49.505 49.505 0 0 0 1136.718 61.38 Q 1135.524 61.391 1132.251 61.45 A 172.985 172.985 0 0 0 1128.076 61.578 A 212.627 212.627 0 0 0 1123.608 61.816 Q 1118.994 62.109 1115.186 62.549 A 28.65 28.65 0 0 0 1113.871 62.729 Q 1111.267 63.153 1110.791 63.867 A 7.063 7.063 0 0 0 1110.032 65.494 A 6.263 6.263 0 0 0 1109.839 66.284 Q 1109.619 67.529 1109.619 68.848 A 19.682 19.682 0 0 0 1109.633 69.56 Q 1109.665 70.422 1109.766 71.631 A 33.447 33.447 0 0 0 1110.109 74.35 A 38.573 38.573 0 0 0 1110.278 75.293 Q 1110.645 77.197 1111.084 78.809 A 8.752 8.752 0 0 0 1111.379 79.709 Q 1111.747 80.643 1112.256 81.152 A 2.48 2.48 0 0 0 1112.865 81.687 Q 1113.407 82.034 1114.233 82.251 A 23.506 23.506 0 0 0 1116.059 82.652 A 28.248 28.248 0 0 0 1117.236 82.837 A 35.908 35.908 0 0 0 1120.459 83.13 A 109.253 109.253 0 0 0 1121.219 83.162 Q 1121.955 83.19 1122.497 83.199 A 27.846 27.846 0 0 0 1122.949 83.203 A 96.421 96.421 0 0 0 1127.514 83.09 A 118.603 118.603 0 0 0 1130.493 82.91 A 552.609 552.609 0 0 0 1138.696 82.251 A 197.529 197.529 0 0 0 1146.826 81.372 A 10553.659 10553.659 0 0 0 1150.635 80.878 A 8301.663 8301.663 0 0 0 1154.15 80.42 Z" id="10" vector-effect="non-scaling-stroke"/>
		<path d="M 1287.305 50.244 L 1287.305 53.613 L 1259.033 54.932 Q 1259.473 53.027 1259.473 50.537 Q 1259.473 47.016 1258.525 45.865 A 1.894 1.894 0 0 0 1258.447 45.776 A 2.466 2.466 0 0 0 1257.622 45.222 Q 1256.388 44.681 1253.932 44.678 A 22.284 22.284 0 0 0 1253.906 44.678 A 33.182 33.182 0 0 0 1248.669 45.117 Q 1246.266 45.502 1243.667 46.223 A 54.756 54.756 0 0 0 1242.92 46.436 Q 1236.914 48.193 1232.373 49.805 Q 1231.641 56.25 1231.201 62.695 A 189.447 189.447 0 0 0 1230.762 75.586 Q 1230.762 82.764 1230.835 89.868 Q 1230.908 96.973 1231.055 104.15 L 1205.859 105.762 A 30641.952 30641.952 0 0 0 1204.395 87.085 Q 1203.662 77.783 1203.076 68.408 A 698.744 698.744 0 0 0 1201.172 43.579 Q 1200 31.201 1198.828 18.604 A 269.899 269.899 0 0 1 1215.454 20.288 A 287.133 287.133 0 0 1 1232.08 22.998 L 1231.348 35.303 Q 1235.742 31.787 1239.771 29.224 A 55.117 55.117 0 0 1 1247.974 24.902 Q 1252.148 23.145 1256.836 22.339 A 54.389 54.389 0 0 1 1262.27 21.699 A 71.642 71.642 0 0 1 1267.236 21.533 A 39.609 39.609 0 0 1 1273.114 21.986 A 45.774 45.774 0 0 1 1275.146 22.339 A 13.371 13.371 0 0 1 1282.178 26.074 A 8.571 8.571 0 0 1 1283.209 27.501 Q 1284.025 28.888 1284.668 30.908 A 47.161 47.161 0 0 1 1286.106 36.718 A 52.783 52.783 0 0 1 1286.279 37.72 A 72.171 72.171 0 0 1 1287.085 44.751 Q 1287.273 47.689 1287.3 49.613 A 44.257 44.257 0 0 1 1287.305 50.244 Z" id="11" vector-effect="non-scaling-stroke"/>
	</g>
</svg>